<svg data-v-423bf9ae="" xmlns="http://www.w3.org/2000/svg" viewBox="0 0 397 90" class="iconLeft"><!----><!----><!----><g data-v-423bf9ae="" id="ecf4d8da-7011-4084-8107-dfd9c6eb09e7" fill="#000000" transform="matrix(5.714285714285714,0,0,5.714285714285714,115.02113299497535,13.800000876188278)"><path d="M6.02 0.42L0.14 10.50L1.82 10.50L3.07 8.27L7.42 8.27L7.84 10.50L9.58 10.50L7.62 0.42ZM6.41 2.39L7.18 6.85L3.88 6.85ZM12.05 10.50L12.75 6.82C13.02 5.40 13.82 4.47 15.02 4.47C15.46 4.47 15.69 4.59 15.95 4.77L16.56 3.39C16.27 3.12 15.90 3.01 15.34 3.01C14.39 3.01 13.72 3.50 13.08 4.48L13.31 3.22L11.89 3.22L10.50 10.50ZM19.88 9.20C19.64 9.27 19.43 9.28 19.29 9.28C18.63 9.28 18.72 8.83 18.84 8.20L19.57 4.44L20.86 4.44L21.10 3.22L19.80 3.22L20.24 0.85L18.58 1.46L18.24 3.22L17.21 3.22L16.98 4.44L18.02 4.44L17.25 8.37C16.98 9.80 17.15 10.64 18.68 10.64C18.94 10.64 19.47 10.57 19.78 10.47ZM31.60 0.42L30.42 0.42C30.00 1.57 28.78 2.83 27.31 2.97L27.02 4.45C28.11 4.45 28.98 3.88 29.46 3.18L28.03 10.50L29.65 10.50ZM33.81 5.46C33.24 8.46 33.75 10.71 36.22 10.71C38.68 10.71 40.05 8.46 40.63 5.46C41.23 2.48 40.71 0.21 38.25 0.21C35.78 0.21 34.41 2.48 33.81 5.46ZM39.13 5.46C38.71 7.66 37.84 9.42 36.46 9.42C36.11 9.42 35.84 9.31 35.64 9.09L39.34 3.16C39.40 3.79 39.30 4.61 39.13 5.46ZM35.32 5.46C35.76 3.28 36.62 1.51 38.00 1.51C38.35 1.51 38.61 1.61 38.81 1.83L35.11 7.74C35.06 7.11 35.17 6.31 35.32 5.46ZM47.29 1.90C45.01 4.07 43.04 7.50 42.39 10.50L44.03 10.50C44.84 7.28 46.54 4.23 48.99 1.90L49.27 0.42L42.94 0.42L42.66 1.90Z"></path></g><defs data-v-423bf9ae=""><linearGradient data-v-423bf9ae="" gradientTransform="rotate(25)" id="9749198d-6997-451d-ac25-d185285b6137" x1="0%" y1="0%" x2="100%" y2="0%"><stop data-v-423bf9ae="" offset="0%" style="stop-color: rgb(234, 31, 89); stop-opacity: 1;"></stop><stop data-v-423bf9ae="" offset="100%" style="stop-color: rgb(250, 145, 105); stop-opacity: 1;"></stop></linearGradient></defs><g data-v-423bf9ae="" id="53460b71-953e-4153-a515-933f59a6bf7b" transform="matrix(2.994410458179972,0,0,2.994410458179972,0.08943266912044834,-1.9385669710569857)" stroke="none" fill="url(#9749198d-6997-451d-ac25-d185285b6137)"><path d="M17.572 23.933l4.106 7.095L32 13.189h-8.981V7.582L11.51.972 0 7.582v13.222l11.51 6.611 6.062-3.482zm10.96-8.744l-6.855 11.846-6.855-11.846h13.71z"></path></g><!----></svg>